<svg enable-background="new 0 0 3873 3873" height="512" viewBox="0 0 3873 3873" width="512" xmlns="http://www.w3.org/2000/svg"><g id="Layer_1"><path clip-rule="evenodd" d="m557.9 53.1h2761.2c279.8 0 508.7 228.9 508.7 508.7v2761.2c0 279.8-228.9 508.7-508.7 508.7h-2761.2c-279.8 0-508.7-228.9-508.7-508.7v-2761.3c.1-279.7 229-508.6 508.7-508.6z" fill="#7e57c2" fill-rule="evenodd"/><g><g><path clip-rule="evenodd" d="m3152.8 2693.8h-1650.8c-71.9 0-135.5-48.3-154.8-117.5l-422-1514.9h-242.8c-88.8 0-160.8-71.9-160.8-160.8 0-88.7 72.1-160.8 160.8-160.8 352.2-.6 323.1 1 351.8-1 84.9-6.8 157.3 53.8 171.8 132.6l405 1454.6c7.6 27.3 32.7 46.4 61.1 46.4h1480.6c88.6 0 160.7 72.1 160.7 160.7.1 88.6-72 160.7-160.6 160.7zm-2190.6-1729.7c21.9 0 41 14.6 46.9 35.6l431.8 1550.4c7.6 27.3 32.7 46.4 61.1 46.4h1650.8c35 0 63.4-28.5 63.4-63.4 0-35-28.5-63.4-63.4-63.4h-1480.7c-71.9 0-135.5-48.3-154.8-117.5-424.9-1526.8-405.5-1455.4-406.8-1462-4.9-30.1-33.1-57.2-68.6-54.3-33.9 2.7-19.7.6-359.5 1.4-35 0-63.4 28.5-63.4 63.4 0 35 28.3 63.4 63.4 63.4z" fill="#fff" fill-rule="evenodd"/></g><g><path clip-rule="evenodd" d="m2543.3 1227.7h-1300.8c-26.9 0-48.6-21.8-48.6-48.6 0-26.9 21.8-48.6 48.6-48.6h1300.8c26.8 0 48.6 21.8 48.6 48.6.1 26.8-21.6 48.6-48.6 48.6z" fill="#fff" fill-rule="evenodd"/></g><g><path clip-rule="evenodd" d="m3071.2 2221.4h-1553.3c-26.9 0-48.6-21.8-48.6-48.6 0-26.9 21.8-48.6 48.6-48.6h1514.9c.1-.4 212.5-896.3 212.5-896.4h-144.1c-26.9 0-48.6-21.8-48.6-48.6 0-26.9 21.8-48.6 48.6-48.6h205.6c31.2 0 54.7 29.2 47.4 59.9l-76 321c0 .1-159.4 672.5-159.4 672.6-5.4 21.8-25 37.3-47.6 37.3z" fill="#fff" fill-rule="evenodd"/></g><g><path clip-rule="evenodd" d="m3230.7 1548.8h-1900.1c-26.9 0-48.6-21.8-48.6-48.6s21.8-48.6 48.6-48.6h1900.1c26.9 0 48.6 21.8 48.6 48.6.1 26.8-21.7 48.6-48.6 48.6z" fill="#fff" fill-rule="evenodd"/></g><g><path clip-rule="evenodd" d="m3147.4 1900.4h-1718.9c-26.8 0-48.6-21.8-48.6-48.6s21.8-48.6 48.6-48.6h1718.8c26.8 0 48.6 21.8 48.6 48.6.1 26.8-21.7 48.6-48.5 48.6z" fill="#fff" fill-rule="evenodd"/></g><g><path clip-rule="evenodd" d="m1838.8 2184.5c-3.9-15.9-244.7-979.2-248.3-993.6-6.5-26 9.3-52.5 35.4-59 26-6.5 52.5 9.3 59 35.4 3.6 14.5 244.3 977.7 248.3 993.6 6.5 26-9.3 52.5-35.4 59-25.2 6.7-52.3-8.8-59-35.4z" fill="#fff" fill-rule="evenodd"/></g><g><path clip-rule="evenodd" d="m2651.5 2220c-26-6.5-41.9-33-35.4-59 8.3-33 206.9-827.9 214.6-858.6 6.5-26 33-41.9 59-35.4s41.9 33 35.4 59c-4.3 17.5-208 832.1-214.6 858.6-6.4 25.7-32.4 41.9-59 35.4z" fill="#fff" fill-rule="evenodd"/></g><g><path clip-rule="evenodd" d="m2274.7 2221.4c-26.9 0-48.6-21.8-48.6-48.6v-993.7c0-26.9 21.8-48.6 48.6-48.6 26.9 0 48.6 21.8 48.6 48.6v993.7c0 26.8-21.8 48.6-48.6 48.6z" fill="#fff" fill-rule="evenodd"/></g><g><path clip-rule="evenodd" d="m1705.1 3311.7c-148.2 0-268.8-120.6-268.8-268.8s120.6-268.8 268.8-268.8 268.8 120.6 268.8 268.8-120.6 268.8-268.8 268.8zm0-440.4c-94.5 0-171.6 76.9-171.6 171.6 0 94.5 76.9 171.6 171.6 171.6 94.5 0 171.6-76.9 171.6-171.6-.1-94.7-77.1-171.6-171.6-171.6z" fill="#fff" fill-rule="evenodd"/></g><g><path clip-rule="evenodd" d="m2949.7 3311.7c-148.2 0-268.8-120.6-268.8-268.8s120.6-268.8 268.8-268.8 268.8 120.6 268.8 268.8-120.6 268.8-268.8 268.8zm0-440.4c-94.5 0-171.6 76.9-171.6 171.6 0 94.5 76.9 171.6 171.6 171.6 94.6 0 171.6-76.9 171.6-171.6-.1-94.7-77.1-171.6-171.6-171.6z" fill="#fff" fill-rule="evenodd"/></g></g><g><g><path clip-rule="evenodd" d="m2822.3 1367.2c-219.3 0-397.1-177.5-397.1-397.1 0-219.1 177.3-397.1 397.1-397.1 219.3 0 397.1 177.5 397.1 397.1 0 218.2-176.4 397.1-397.1 397.1zm0-697c-165.4 0-299.9 134.5-299.9 299.9s134.5 299.9 299.9 299.9 299.9-134.5 299.9-299.9c-.1-165.3-134.6-299.9-299.9-299.9z" fill="#fff" fill-rule="evenodd"/></g><g><g><path clip-rule="evenodd" d="m2822.3 1176.5c-26.9 0-48.6-21.8-48.6-48.6v-315.6c0-26.9 21.8-48.6 48.6-48.6s48.6 21.8 48.6 48.6v315.6c0 26.8-21.8 48.6-48.6 48.6z" fill="#fff" fill-rule="evenodd"/></g><g><path clip-rule="evenodd" d="m2980.1 1018.7h-315.6c-26.8 0-48.6-21.8-48.6-48.6s21.8-48.6 48.6-48.6h315.6c26.8 0 48.6 21.8 48.6 48.6s-21.8 48.6-48.6 48.6z" fill="#fff" fill-rule="evenodd"/></g></g></g></g></svg>